<svg xmlns="http://www.w3.org/2000/svg" viewBox="0 0 128 128" shape-rendering="crispEdges">
  <rect width="128" height="128" fill="transparent"/>

  <!-- tail/back shadow -->
  <path d="M88 74h20v6h8v10h-8v6H86z" fill="#00122b"/>

  <!-- body base -->
  <path d="M26 44h58v6h16v6h8v6h6v6h2v22h-6v10H86v6H58v-6H46v-6H38v-8H30V78h-4V56h4z" fill="#0ca71c"/>

  <!-- body highlights -->
  <path d="M34 42h18v-4h24v4h10v4h10v2h-4v4h6v4h-6v4h8v4h-8v4h6v4h-8v4h4v4h-8v4h6v4h-8v4h-4v4h-6v-4h-6v-4h-6v-6h8v-6h6v-4h-8v-4h-8v-4h-4v-6h-4v-8h-6v-4h-8v-4h-2v-6h4z" fill="#52d80d"/>

  <!-- deep green shading -->
  <path d="M44 58h22v4h8v6h8v4h10v4h8v4h-2v8h-8v6h-8v2H72v-4h-8v-4h-8v-6h6v-8h-8v-6h-8v-8z" fill="#056d14"/>

  <!-- beak -->
  <path d="M14 58h12v-2h6v4h4v16h-4v10h-8v-2h-8z" fill="#f4c51a"/>
  <path d="M16 64h12v2h4v8h-4v4H16z" fill="#ff4a00"/>
  <path d="M24 56h8v4h-8z" fill="#123760"/>

  <!-- neck shadow -->
  <path d="M44 62h8v20h-8z" fill="#123760"/>

  <!-- eye -->
  <rect x="52" y="52" width="10" height="10" fill="#00122b"/>
  <rect x="55" y="55" width="4" height="3" fill="#f5f7fb"/>
  <rect x="53" y="58" width="2" height="2" fill="#8a3e21"/>
  <rect x="60" y="58" width="2" height="2" fill="#8a3e21"/>

  <!-- wing blue patch -->
  <path d="M74 74h10v4h4v14h-4v4h-10v-4h-2v-14h2z" fill="#2ba3ff"/>
  <path d="M80 78h8v6h-8z" fill="#1d60c2"/>

  <!-- leg -->
  <rect x="78" y="94" width="4" height="8" fill="#ff4e00"/>
  <rect x="82" y="94" width="4" height="8" fill="#1f59b7"/>

  <!-- feet -->
  <path d="M58 104h16v2h-6v2h-8v-2h-6v6h-4v-8h2v-2h6z" fill="#02132b"/>
  <path d="M74 104h14v2h-2v2h8v4h-4v-2h-10v-2h-6z" fill="#6f7482"/>
  <rect x="56" y="104" width="2" height="2" fill="#cfd3dd"/>
  <rect x="82" y="104" width="2" height="2" fill="#cfd3dd"/>

  <!-- outline accents -->
  <path d="M24 44h10v-4h18v-4h24v4h12v2h8v4h6v4h6v6h6v4h2v6h2v12h-2v6h2v10h-4v4h-6v6H90v4H58v-4H46v-4H38v-6h-8v-8h-4V80h-4V56h2v-6h4v-4h-4z" fill="none" stroke="#00122b" stroke-width="2"/>
</svg>
